<mxfile host="app.diagrams.net" agent="Mozilla/5.0 (Windows NT 10.0; Win64; x64) AppleWebKit/537.36 (KHTML, like Gecko) Chrome/134.0.0.0 Safari/537.36 Edg/134.0.0.0" version="26.1.3">
  <diagram id="C5RBs43oDa-KdzZeNtuy" name="Page-1">
    <mxGraphModel dx="3226" dy="1004" grid="1" gridSize="10" guides="1" tooltips="1" connect="1" arrows="1" fold="1" page="1" pageScale="1" pageWidth="1654" pageHeight="2336" math="0" shadow="0">
      <root>
        <mxCell id="WIyWlLk6GJQsqaUBKTNV-0" />
        <mxCell id="WIyWlLk6GJQsqaUBKTNV-1" parent="WIyWlLk6GJQsqaUBKTNV-0" />
        <mxCell id="xdq3v8J5hGvDdQu_xFZK-79" value="" style="rounded=0;whiteSpace=wrap;html=1;" vertex="1" parent="WIyWlLk6GJQsqaUBKTNV-1">
          <mxGeometry x="400" y="400" width="120" height="60" as="geometry" />
        </mxCell>
        <mxCell id="xdq3v8J5hGvDdQu_xFZK-78" value="" style="rounded=0;whiteSpace=wrap;html=1;" vertex="1" parent="WIyWlLk6GJQsqaUBKTNV-1">
          <mxGeometry x="700" y="240" width="120" height="60" as="geometry" />
        </mxCell>
        <mxCell id="xdq3v8J5hGvDdQu_xFZK-0" value="" style="ellipse;whiteSpace=wrap;html=1;" vertex="1" parent="WIyWlLk6GJQsqaUBKTNV-1">
          <mxGeometry x="230" y="20" width="120" height="80" as="geometry" />
        </mxCell>
        <mxCell id="xdq3v8J5hGvDdQu_xFZK-2" value="Start" style="text;html=1;align=center;verticalAlign=middle;whiteSpace=wrap;rounded=0;fontSize=20;" vertex="1" parent="WIyWlLk6GJQsqaUBKTNV-1">
          <mxGeometry x="260" y="45" width="60" height="30" as="geometry" />
        </mxCell>
        <mxCell id="xdq3v8J5hGvDdQu_xFZK-3" value="" style="endArrow=classic;html=1;rounded=0;" edge="1" parent="WIyWlLk6GJQsqaUBKTNV-1">
          <mxGeometry width="50" height="50" relative="1" as="geometry">
            <mxPoint x="289.37" y="100" as="sourcePoint" />
            <mxPoint x="289" y="160" as="targetPoint" />
            <Array as="points">
              <mxPoint x="289.37" y="140" />
            </Array>
          </mxGeometry>
        </mxCell>
        <mxCell id="xdq3v8J5hGvDdQu_xFZK-43" value="" style="edgeStyle=orthogonalEdgeStyle;rounded=0;orthogonalLoop=1;jettySize=auto;html=1;entryX=0.5;entryY=0;entryDx=0;entryDy=0;" edge="1" parent="WIyWlLk6GJQsqaUBKTNV-1" source="xdq3v8J5hGvDdQu_xFZK-4" target="xdq3v8J5hGvDdQu_xFZK-40">
          <mxGeometry relative="1" as="geometry" />
        </mxCell>
        <mxCell id="xdq3v8J5hGvDdQu_xFZK-4" value="" style="rhombus;whiteSpace=wrap;html=1;" vertex="1" parent="WIyWlLk6GJQsqaUBKTNV-1">
          <mxGeometry x="220" y="260" width="140" height="140" as="geometry" />
        </mxCell>
        <mxCell id="xdq3v8J5hGvDdQu_xFZK-5" value="what payment method are you using payment method" style="text;html=1;align=center;verticalAlign=middle;whiteSpace=wrap;rounded=0;" vertex="1" parent="WIyWlLk6GJQsqaUBKTNV-1">
          <mxGeometry x="235" y="322.5" width="110" height="15" as="geometry" />
        </mxCell>
        <mxCell id="xdq3v8J5hGvDdQu_xFZK-6" value="" style="endArrow=classic;html=1;rounded=0;entryX=0;entryY=0.5;entryDx=0;entryDy=0;" edge="1" parent="WIyWlLk6GJQsqaUBKTNV-1" target="xdq3v8J5hGvDdQu_xFZK-9">
          <mxGeometry width="50" height="50" relative="1" as="geometry">
            <mxPoint x="360" y="329.44" as="sourcePoint" />
            <mxPoint x="420" y="329.44" as="targetPoint" />
            <Array as="points">
              <mxPoint x="360" y="329.44" />
            </Array>
          </mxGeometry>
        </mxCell>
        <mxCell id="xdq3v8J5hGvDdQu_xFZK-8" value="" style="endArrow=classic;html=1;rounded=0;" edge="1" parent="WIyWlLk6GJQsqaUBKTNV-1">
          <mxGeometry width="50" height="50" relative="1" as="geometry">
            <mxPoint x="220" y="329.38" as="sourcePoint" />
            <mxPoint x="160" y="329.38" as="targetPoint" />
            <Array as="points">
              <mxPoint x="219.5" y="329.38" />
            </Array>
          </mxGeometry>
        </mxCell>
        <mxCell id="xdq3v8J5hGvDdQu_xFZK-9" value="" style="rounded=0;whiteSpace=wrap;html=1;" vertex="1" parent="WIyWlLk6GJQsqaUBKTNV-1">
          <mxGeometry x="410" y="300" width="120" height="60" as="geometry" />
        </mxCell>
        <mxCell id="xdq3v8J5hGvDdQu_xFZK-10" value="" style="rounded=0;whiteSpace=wrap;html=1;" vertex="1" parent="WIyWlLk6GJQsqaUBKTNV-1">
          <mxGeometry x="230" y="575" width="120" height="60" as="geometry" />
        </mxCell>
        <mxCell id="xdq3v8J5hGvDdQu_xFZK-11" value="" style="rounded=0;whiteSpace=wrap;html=1;" vertex="1" parent="WIyWlLk6GJQsqaUBKTNV-1">
          <mxGeometry x="40" y="300" width="120" height="60" as="geometry" />
        </mxCell>
        <mxCell id="xdq3v8J5hGvDdQu_xFZK-12" value="Bank trasfer" style="text;html=1;align=center;verticalAlign=middle;whiteSpace=wrap;rounded=0;" vertex="1" parent="WIyWlLk6GJQsqaUBKTNV-1">
          <mxGeometry x="440" y="315" width="60" height="30" as="geometry" />
        </mxCell>
        <mxCell id="xdq3v8J5hGvDdQu_xFZK-14" value="Opay" style="text;html=1;align=center;verticalAlign=middle;whiteSpace=wrap;rounded=0;" vertex="1" parent="WIyWlLk6GJQsqaUBKTNV-1">
          <mxGeometry x="70" y="315" width="60" height="30" as="geometry" />
        </mxCell>
        <mxCell id="xdq3v8J5hGvDdQu_xFZK-15" value="" style="endArrow=classic;html=1;rounded=0;exitX=1;exitY=0.5;exitDx=0;exitDy=0;entryX=0.5;entryY=0;entryDx=0;entryDy=0;" edge="1" parent="WIyWlLk6GJQsqaUBKTNV-1" source="xdq3v8J5hGvDdQu_xFZK-9" target="xdq3v8J5hGvDdQu_xFZK-46">
          <mxGeometry width="50" height="50" relative="1" as="geometry">
            <mxPoint x="540" y="242.5" as="sourcePoint" />
            <mxPoint x="610" y="310" as="targetPoint" />
            <Array as="points">
              <mxPoint x="615" y="330" />
            </Array>
          </mxGeometry>
        </mxCell>
        <mxCell id="xdq3v8J5hGvDdQu_xFZK-16" value="" style="shape=parallelogram;perimeter=parallelogramPerimeter;whiteSpace=wrap;html=1;fixedSize=1;" vertex="1" parent="WIyWlLk6GJQsqaUBKTNV-1">
          <mxGeometry x="555" y="630" width="120" height="60" as="geometry" />
        </mxCell>
        <mxCell id="xdq3v8J5hGvDdQu_xFZK-17" value="" style="endArrow=classic;html=1;rounded=0;exitX=0.5;exitY=1;exitDx=0;exitDy=0;entryX=0.5;entryY=0;entryDx=0;entryDy=0;" edge="1" parent="WIyWlLk6GJQsqaUBKTNV-1" source="xdq3v8J5hGvDdQu_xFZK-11" target="xdq3v8J5hGvDdQu_xFZK-32">
          <mxGeometry width="50" height="50" relative="1" as="geometry">
            <mxPoint x="98.88999999999999" y="280" as="sourcePoint" />
            <mxPoint x="110" y="370" as="targetPoint" />
          </mxGeometry>
        </mxCell>
        <mxCell id="xdq3v8J5hGvDdQu_xFZK-18" value="" style="endArrow=classic;html=1;rounded=0;exitX=0.5;exitY=1;exitDx=0;exitDy=0;" edge="1" parent="WIyWlLk6GJQsqaUBKTNV-1" source="xdq3v8J5hGvDdQu_xFZK-10" target="xdq3v8J5hGvDdQu_xFZK-19">
          <mxGeometry width="50" height="50" relative="1" as="geometry">
            <mxPoint x="290" y="640" as="sourcePoint" />
            <mxPoint x="289.38" y="590" as="targetPoint" />
          </mxGeometry>
        </mxCell>
        <mxCell id="xdq3v8J5hGvDdQu_xFZK-19" value="" style="shape=parallelogram;perimeter=parallelogramPerimeter;whiteSpace=wrap;html=1;fixedSize=1;" vertex="1" parent="WIyWlLk6GJQsqaUBKTNV-1">
          <mxGeometry x="230" y="690" width="120" height="60" as="geometry" />
        </mxCell>
        <mxCell id="xdq3v8J5hGvDdQu_xFZK-21" value="Enter bank account details / card details" style="text;html=1;align=center;verticalAlign=middle;whiteSpace=wrap;rounded=0;" vertex="1" parent="WIyWlLk6GJQsqaUBKTNV-1">
          <mxGeometry x="240" y="705" width="100" height="30" as="geometry" />
        </mxCell>
        <mxCell id="xdq3v8J5hGvDdQu_xFZK-22" value="Enter bank account details / card details" style="text;html=1;align=center;verticalAlign=middle;whiteSpace=wrap;rounded=0;" vertex="1" parent="WIyWlLk6GJQsqaUBKTNV-1">
          <mxGeometry x="565" y="650" width="100" height="30" as="geometry" />
        </mxCell>
        <mxCell id="xdq3v8J5hGvDdQu_xFZK-24" value="" style="endArrow=classic;html=1;rounded=0;entryX=0.5;entryY=0;entryDx=0;entryDy=0;" edge="1" parent="WIyWlLk6GJQsqaUBKTNV-1" target="xdq3v8J5hGvDdQu_xFZK-89">
          <mxGeometry width="50" height="50" relative="1" as="geometry">
            <mxPoint x="289.37" y="750" as="sourcePoint" />
            <mxPoint x="290.48" y="910" as="targetPoint" />
          </mxGeometry>
        </mxCell>
        <mxCell id="xdq3v8J5hGvDdQu_xFZK-26" value="" style="endArrow=classic;html=1;rounded=0;exitX=0.5;exitY=1;exitDx=0;exitDy=0;entryX=0.75;entryY=0;entryDx=0;entryDy=0;" edge="1" parent="WIyWlLk6GJQsqaUBKTNV-1" target="xdq3v8J5hGvDdQu_xFZK-89">
          <mxGeometry width="50" height="50" relative="1" as="geometry">
            <mxPoint x="615.0000000000005" y="690" as="sourcePoint" />
            <mxPoint x="320" y="915" as="targetPoint" />
            <Array as="points">
              <mxPoint x="614" y="725" />
              <mxPoint x="614" y="765" />
              <mxPoint x="320" y="765" />
            </Array>
          </mxGeometry>
        </mxCell>
        <mxCell id="xdq3v8J5hGvDdQu_xFZK-27" value="" style="endArrow=classic;html=1;rounded=0;exitX=0.5;exitY=1;exitDx=0;exitDy=0;entryX=0.25;entryY=0;entryDx=0;entryDy=0;" edge="1" parent="WIyWlLk6GJQsqaUBKTNV-1" target="xdq3v8J5hGvDdQu_xFZK-89">
          <mxGeometry width="50" height="50" relative="1" as="geometry">
            <mxPoint x="99.99999999999955" y="700" as="sourcePoint" />
            <mxPoint x="260" y="910" as="targetPoint" />
            <Array as="points">
              <mxPoint x="100" y="780" />
              <mxPoint x="260" y="780" />
            </Array>
          </mxGeometry>
        </mxCell>
        <mxCell id="xdq3v8J5hGvDdQu_xFZK-32" value="" style="rhombus;whiteSpace=wrap;html=1;" vertex="1" parent="WIyWlLk6GJQsqaUBKTNV-1">
          <mxGeometry x="45" y="480" width="110" height="110" as="geometry" />
        </mxCell>
        <mxCell id="xdq3v8J5hGvDdQu_xFZK-33" value="Cancel/continue" style="text;html=1;align=center;verticalAlign=middle;whiteSpace=wrap;rounded=0;" vertex="1" parent="WIyWlLk6GJQsqaUBKTNV-1">
          <mxGeometry x="70" y="520" width="60" height="30" as="geometry" />
        </mxCell>
        <mxCell id="xdq3v8J5hGvDdQu_xFZK-35" value="" style="shape=parallelogram;perimeter=parallelogramPerimeter;whiteSpace=wrap;html=1;fixedSize=1;" vertex="1" parent="WIyWlLk6GJQsqaUBKTNV-1">
          <mxGeometry x="45" y="645" width="120" height="60" as="geometry" />
        </mxCell>
        <mxCell id="xdq3v8J5hGvDdQu_xFZK-38" value="Enter bank account details / card details" style="text;html=1;align=center;verticalAlign=middle;whiteSpace=wrap;rounded=0;" vertex="1" parent="WIyWlLk6GJQsqaUBKTNV-1">
          <mxGeometry x="55" y="660" width="100" height="30" as="geometry" />
        </mxCell>
        <mxCell id="xdq3v8J5hGvDdQu_xFZK-13" value="Bank Card" style="text;html=1;align=center;verticalAlign=middle;whiteSpace=wrap;rounded=0;" vertex="1" parent="WIyWlLk6GJQsqaUBKTNV-1">
          <mxGeometry x="260" y="590" width="60" height="30" as="geometry" />
        </mxCell>
        <mxCell id="xdq3v8J5hGvDdQu_xFZK-76" value="" style="edgeStyle=orthogonalEdgeStyle;rounded=0;orthogonalLoop=1;jettySize=auto;html=1;entryX=0.5;entryY=0;entryDx=0;entryDy=0;" edge="1" parent="WIyWlLk6GJQsqaUBKTNV-1" source="xdq3v8J5hGvDdQu_xFZK-40" target="xdq3v8J5hGvDdQu_xFZK-10">
          <mxGeometry relative="1" as="geometry">
            <mxPoint x="290" y="570" as="targetPoint" />
          </mxGeometry>
        </mxCell>
        <mxCell id="xdq3v8J5hGvDdQu_xFZK-40" value="" style="rhombus;whiteSpace=wrap;html=1;" vertex="1" parent="WIyWlLk6GJQsqaUBKTNV-1">
          <mxGeometry x="235" y="425" width="110" height="110" as="geometry" />
        </mxCell>
        <mxCell id="xdq3v8J5hGvDdQu_xFZK-41" value="Cancel/continue" style="text;html=1;align=center;verticalAlign=middle;whiteSpace=wrap;rounded=0;" vertex="1" parent="WIyWlLk6GJQsqaUBKTNV-1">
          <mxGeometry x="260" y="465" width="60" height="30" as="geometry" />
        </mxCell>
        <mxCell id="xdq3v8J5hGvDdQu_xFZK-46" value="" style="rhombus;whiteSpace=wrap;html=1;" vertex="1" parent="WIyWlLk6GJQsqaUBKTNV-1">
          <mxGeometry x="560" y="370" width="110" height="110" as="geometry" />
        </mxCell>
        <mxCell id="xdq3v8J5hGvDdQu_xFZK-47" value="Cancel/continue" style="text;html=1;align=center;verticalAlign=middle;whiteSpace=wrap;rounded=0;" vertex="1" parent="WIyWlLk6GJQsqaUBKTNV-1">
          <mxGeometry x="585" y="410" width="60" height="30" as="geometry" />
        </mxCell>
        <mxCell id="xdq3v8J5hGvDdQu_xFZK-54" value="" style="endArrow=classic;html=1;rounded=0;exitX=0.5;exitY=1;exitDx=0;exitDy=0;entryX=0.5;entryY=0;entryDx=0;entryDy=0;" edge="1" parent="WIyWlLk6GJQsqaUBKTNV-1" source="xdq3v8J5hGvDdQu_xFZK-46" target="xdq3v8J5hGvDdQu_xFZK-16">
          <mxGeometry relative="1" as="geometry">
            <mxPoint x="614.38" y="440" as="sourcePoint" />
            <mxPoint x="614.38" y="520" as="targetPoint" />
          </mxGeometry>
        </mxCell>
        <mxCell id="xdq3v8J5hGvDdQu_xFZK-55" value="Continue" style="edgeLabel;resizable=0;html=1;;align=center;verticalAlign=middle;" connectable="0" vertex="1" parent="xdq3v8J5hGvDdQu_xFZK-54">
          <mxGeometry relative="1" as="geometry">
            <mxPoint x="-1" y="-2" as="offset" />
          </mxGeometry>
        </mxCell>
        <mxCell id="xdq3v8J5hGvDdQu_xFZK-59" value="" style="endArrow=classic;html=1;rounded=0;entryX=0.5;entryY=1;entryDx=0;entryDy=0;" edge="1" parent="WIyWlLk6GJQsqaUBKTNV-1">
          <mxGeometry relative="1" as="geometry">
            <mxPoint x="670" y="425" as="sourcePoint" />
            <mxPoint x="760.0000000000005" y="300.6200000000001" as="targetPoint" />
            <Array as="points">
              <mxPoint x="760" y="424.62" />
            </Array>
          </mxGeometry>
        </mxCell>
        <mxCell id="xdq3v8J5hGvDdQu_xFZK-60" value="Cancel" style="edgeLabel;resizable=0;html=1;;align=center;verticalAlign=middle;" connectable="0" vertex="1" parent="xdq3v8J5hGvDdQu_xFZK-59">
          <mxGeometry relative="1" as="geometry">
            <mxPoint y="-41" as="offset" />
          </mxGeometry>
        </mxCell>
        <mxCell id="xdq3v8J5hGvDdQu_xFZK-62" value="Exit menu" style="text;html=1;align=center;verticalAlign=middle;whiteSpace=wrap;rounded=0;" vertex="1" parent="WIyWlLk6GJQsqaUBKTNV-1">
          <mxGeometry x="730" y="255" width="60" height="30" as="geometry" />
        </mxCell>
        <mxCell id="xdq3v8J5hGvDdQu_xFZK-64" value="Exit menu" style="text;html=1;align=center;verticalAlign=middle;whiteSpace=wrap;rounded=0;" vertex="1" parent="WIyWlLk6GJQsqaUBKTNV-1">
          <mxGeometry x="430" y="415" width="60" height="30" as="geometry" />
        </mxCell>
        <mxCell id="xdq3v8J5hGvDdQu_xFZK-67" value="" style="endArrow=classic;html=1;rounded=0;exitX=0;exitY=0.5;exitDx=0;exitDy=0;" edge="1" parent="WIyWlLk6GJQsqaUBKTNV-1" source="xdq3v8J5hGvDdQu_xFZK-32" target="xdq3v8J5hGvDdQu_xFZK-77">
          <mxGeometry relative="1" as="geometry">
            <mxPoint x="-30" y="480" as="sourcePoint" />
            <mxPoint x="49.999999999999545" y="59.999999999999886" as="targetPoint" />
            <Array as="points">
              <mxPoint x="-10" y="535" />
              <mxPoint x="-10" y="60" />
            </Array>
          </mxGeometry>
        </mxCell>
        <mxCell id="xdq3v8J5hGvDdQu_xFZK-68" value="Cancel" style="edgeLabel;resizable=0;html=1;;align=center;verticalAlign=middle;" connectable="0" vertex="1" parent="xdq3v8J5hGvDdQu_xFZK-67">
          <mxGeometry relative="1" as="geometry" />
        </mxCell>
        <mxCell id="xdq3v8J5hGvDdQu_xFZK-73" value="" style="endArrow=classic;html=1;rounded=0;exitX=0.5;exitY=1;exitDx=0;exitDy=0;" edge="1" parent="WIyWlLk6GJQsqaUBKTNV-1" source="xdq3v8J5hGvDdQu_xFZK-32">
          <mxGeometry relative="1" as="geometry">
            <mxPoint x="100" y="500" as="sourcePoint" />
            <mxPoint x="100" y="645" as="targetPoint" />
          </mxGeometry>
        </mxCell>
        <mxCell id="xdq3v8J5hGvDdQu_xFZK-74" value="Continue" style="edgeLabel;resizable=0;html=1;;align=center;verticalAlign=middle;" connectable="0" vertex="1" parent="xdq3v8J5hGvDdQu_xFZK-73">
          <mxGeometry relative="1" as="geometry" />
        </mxCell>
        <mxCell id="xdq3v8J5hGvDdQu_xFZK-77" value="" style="rounded=0;whiteSpace=wrap;html=1;" vertex="1" parent="WIyWlLk6GJQsqaUBKTNV-1">
          <mxGeometry x="55" y="30" width="120" height="60" as="geometry" />
        </mxCell>
        <mxCell id="xdq3v8J5hGvDdQu_xFZK-66" value="Exit menu" style="text;html=1;align=center;verticalAlign=middle;whiteSpace=wrap;rounded=0;" vertex="1" parent="WIyWlLk6GJQsqaUBKTNV-1">
          <mxGeometry x="85" y="45" width="60" height="30" as="geometry" />
        </mxCell>
        <mxCell id="xdq3v8J5hGvDdQu_xFZK-82" value="" style="endArrow=classic;html=1;rounded=0;entryX=0.5;entryY=1;entryDx=0;entryDy=0;" edge="1" parent="WIyWlLk6GJQsqaUBKTNV-1" target="xdq3v8J5hGvDdQu_xFZK-79">
          <mxGeometry relative="1" as="geometry">
            <mxPoint x="345" y="480" as="sourcePoint" />
            <mxPoint x="445" y="480" as="targetPoint" />
            <Array as="points">
              <mxPoint x="460" y="480" />
            </Array>
          </mxGeometry>
        </mxCell>
        <mxCell id="xdq3v8J5hGvDdQu_xFZK-83" value="Cancel" style="edgeLabel;resizable=0;html=1;;align=center;verticalAlign=middle;" connectable="0" vertex="1" parent="xdq3v8J5hGvDdQu_xFZK-82">
          <mxGeometry relative="1" as="geometry" />
        </mxCell>
        <mxCell id="xdq3v8J5hGvDdQu_xFZK-88" value="" style="edgeStyle=orthogonalEdgeStyle;rounded=0;orthogonalLoop=1;jettySize=auto;html=1;entryX=0.5;entryY=0;entryDx=0;entryDy=0;" edge="1" parent="WIyWlLk6GJQsqaUBKTNV-1" source="xdq3v8J5hGvDdQu_xFZK-84" target="xdq3v8J5hGvDdQu_xFZK-4">
          <mxGeometry relative="1" as="geometry" />
        </mxCell>
        <mxCell id="xdq3v8J5hGvDdQu_xFZK-84" value="" style="rounded=0;whiteSpace=wrap;html=1;" vertex="1" parent="WIyWlLk6GJQsqaUBKTNV-1">
          <mxGeometry x="230" y="160" width="120" height="60" as="geometry" />
        </mxCell>
        <mxCell id="xdq3v8J5hGvDdQu_xFZK-85" value="Enter Email Address" style="text;html=1;align=center;verticalAlign=middle;whiteSpace=wrap;rounded=0;" vertex="1" parent="WIyWlLk6GJQsqaUBKTNV-1">
          <mxGeometry x="260" y="175" width="60" height="30" as="geometry" />
        </mxCell>
        <mxCell id="xdq3v8J5hGvDdQu_xFZK-89" value="" style="rounded=0;whiteSpace=wrap;html=1;" vertex="1" parent="WIyWlLk6GJQsqaUBKTNV-1">
          <mxGeometry x="230" y="930" width="120" height="60" as="geometry" />
        </mxCell>
        <mxCell id="xdq3v8J5hGvDdQu_xFZK-92" value="" style="edgeStyle=orthogonalEdgeStyle;rounded=0;orthogonalLoop=1;jettySize=auto;html=1;entryX=0.5;entryY=0;entryDx=0;entryDy=0;" edge="1" parent="WIyWlLk6GJQsqaUBKTNV-1" target="xdq3v8J5hGvDdQu_xFZK-91">
          <mxGeometry relative="1" as="geometry">
            <mxPoint x="290" y="990" as="sourcePoint" />
          </mxGeometry>
        </mxCell>
        <mxCell id="xdq3v8J5hGvDdQu_xFZK-90" value="send receipt to entered email address" style="text;html=1;align=center;verticalAlign=middle;whiteSpace=wrap;rounded=0;" vertex="1" parent="WIyWlLk6GJQsqaUBKTNV-1">
          <mxGeometry x="250" y="945" width="80" height="30" as="geometry" />
        </mxCell>
        <mxCell id="xdq3v8J5hGvDdQu_xFZK-96" value="" style="edgeStyle=orthogonalEdgeStyle;rounded=0;orthogonalLoop=1;jettySize=auto;html=1;" edge="1" parent="WIyWlLk6GJQsqaUBKTNV-1" source="xdq3v8J5hGvDdQu_xFZK-91" target="xdq3v8J5hGvDdQu_xFZK-95">
          <mxGeometry relative="1" as="geometry" />
        </mxCell>
        <mxCell id="xdq3v8J5hGvDdQu_xFZK-91" value="" style="rounded=0;whiteSpace=wrap;html=1;" vertex="1" parent="WIyWlLk6GJQsqaUBKTNV-1">
          <mxGeometry x="230" y="1080" width="120" height="60" as="geometry" />
        </mxCell>
        <mxCell id="xdq3v8J5hGvDdQu_xFZK-93" value="Display thank you message" style="text;html=1;align=center;verticalAlign=middle;whiteSpace=wrap;rounded=0;" vertex="1" parent="WIyWlLk6GJQsqaUBKTNV-1">
          <mxGeometry x="250" y="1095" width="80" height="30" as="geometry" />
        </mxCell>
        <mxCell id="xdq3v8J5hGvDdQu_xFZK-95" value="END" style="ellipse;whiteSpace=wrap;html=1;" vertex="1" parent="WIyWlLk6GJQsqaUBKTNV-1">
          <mxGeometry x="230" y="1210" width="120" height="80" as="geometry" />
        </mxCell>
      </root>
    </mxGraphModel>
  </diagram>
</mxfile>
